<svg width="27" height="27" viewBox="0 0 27 27" fill="none" xmlns="http://www.w3.org/2000/svg">
<path d="M12.2604 13.375C12.2604 13.748 12.4085 14.1056 12.6722 14.3694C12.936 14.6331 13.2936 14.7812 13.6666 14.7812C14.0396 14.7812 14.3973 14.6331 14.661 14.3694C14.9247 14.1056 15.0729 13.748 15.0729 13.375C15.0729 13.002 14.9247 12.6444 14.661 12.3806C14.3973 12.1169 14.0396 11.9688 13.6666 11.9688C13.2936 11.9688 12.936 12.1169 12.6722 12.3806C12.4085 12.6444 12.2604 13.002 12.2604 13.375ZM18.1197 13.375C18.1197 13.748 18.2679 14.1056 18.5316 14.3694C18.7953 14.6331 19.153 14.7812 19.526 14.7812C19.8989 14.7812 20.2566 14.6331 20.5204 14.3694C20.7841 14.1056 20.9322 13.748 20.9322 13.375C20.9322 13.002 20.7841 12.6444 20.5204 12.3806C20.2566 12.1169 19.8989 11.9688 19.526 11.9688C19.153 11.9688 18.7953 12.1169 18.5316 12.3806C18.2679 12.6444 18.1197 13.002 18.1197 13.375ZM6.40098 13.375C6.40098 13.748 6.54914 14.1056 6.81286 14.3694C7.07659 14.6331 7.43427 14.7812 7.80723 14.7812C8.18019 14.7812 8.53788 14.6331 8.8016 14.3694C9.06533 14.1056 9.21348 13.748 9.21348 13.375C9.21348 13.002 9.06533 12.6444 8.8016 12.3806C8.53788 12.1169 8.18019 11.9688 7.80723 11.9688C7.43427 11.9688 7.07659 12.1169 6.81286 12.3806C6.54914 12.6444 6.40098 13.002 6.40098 13.375ZM25.7721 8.28906C25.11 6.71582 24.1607 5.30371 22.9508 4.09082C21.7493 2.88498 20.3229 1.92646 18.7525 1.26953C17.1412 0.592774 15.4303 0.25 13.6666 0.25H13.608C11.8326 0.258789 10.1129 0.610352 8.49571 1.30176C6.93877 1.96543 5.5258 2.92565 4.33555 4.12891C3.13731 5.33887 2.19688 6.74512 1.54649 8.3125C0.872664 9.93555 0.53282 11.6611 0.541609 13.4365C0.55155 15.4711 1.03289 17.4757 1.94786 19.293V23.7461C1.94786 24.1035 2.08984 24.4463 2.34258 24.699C2.59531 24.9518 2.93809 25.0938 3.29552 25.0938H7.75157C9.56884 26.0087 11.5734 26.4901 13.608 26.5H13.6695C15.4244 26.5 17.1266 26.1602 18.7291 25.4951C20.2916 24.846 21.7126 23.8987 22.9127 22.7061C24.1227 21.5078 25.0748 20.1074 25.7398 18.5459C26.4313 16.9287 26.7828 15.209 26.7916 13.4336C26.8004 11.6494 26.4547 9.91797 25.7721 8.28906ZM21.3453 21.1211C19.2916 23.1543 16.567 24.2734 13.6666 24.2734H13.6168C11.8502 24.2646 10.0953 23.8252 8.54552 22.999L8.29942 22.8672H4.17442V18.7422L4.04259 18.4961C3.21641 16.9463 2.77696 15.1914 2.76817 13.4248C2.75645 10.5039 3.87266 7.76172 5.92052 5.69629C7.96544 3.63086 10.6988 2.48828 13.6197 2.47656H13.6695C15.1344 2.47656 16.5553 2.76074 17.8941 3.32324C19.2008 3.87109 20.3727 4.65918 21.3805 5.66699C22.3854 6.67188 23.1764 7.84668 23.7242 9.15332C24.2926 10.5068 24.5768 11.9424 24.5709 13.4248C24.5533 16.3428 23.4078 19.0762 21.3453 21.1211Z" fill="#392E2E"/>
</svg>
