<svg width="24" height="25" viewBox="0 0 24 25" fill="none" xmlns="http://www.w3.org/2000/svg">
<path d="M10.11 16.3075C10.1586 15.7875 10.2974 15.28 10.52 14.8075H4.25403C3.65764 14.8075 3.08564 15.0443 2.66374 15.4658C2.24185 15.8874 2.00456 16.4592 2.00403 17.0555V17.6335C2.00403 18.5255 2.32403 19.3895 2.90403 20.0685C4.46703 21.9025 6.85403 22.8075 10 22.8075C11.414 22.8075 12.672 22.6242 13.774 22.2575L12.559 21.0425C11.7964 21.2192 10.9434 21.3075 10 21.3075C7.26203 21.3075 5.29603 20.5625 4.04303 19.0945C3.69483 18.6874 3.50334 18.1693 3.50303 17.6335V17.0555C3.50329 16.8568 3.58243 16.6663 3.72305 16.5259C3.86368 16.3854 4.05429 16.3065 4.25303 16.3065L10.11 16.3075ZM10 2.81055C11.3261 2.81055 12.5979 3.33733 13.5356 4.27501C14.4732 5.21269 15 6.48446 15 7.81055C15 9.13663 14.4732 10.4084 13.5356 11.3461C12.5979 12.2838 11.3261 12.8105 10 12.8105C8.67395 12.8105 7.40218 12.2838 6.46449 11.3461C5.52681 10.4084 5.00003 9.13663 5.00003 7.81055C5.00003 6.48446 5.52681 5.21269 6.46449 4.27501C7.40218 3.33733 8.67395 2.81055 10 2.81055ZM10 4.31055C9.07177 4.31055 8.18153 4.6793 7.52516 5.33567C6.86878 5.99205 6.50003 6.88229 6.50003 7.81055C6.50003 8.7388 6.86878 9.62904 7.52516 10.2854C8.18153 10.9418 9.07177 11.3105 10 11.3105C10.9283 11.3105 11.8185 10.9418 12.4749 10.2854C13.1313 9.62904 13.5 8.7388 13.5 7.81055C13.5 6.88229 13.1313 5.99205 12.4749 5.33567C11.8185 4.6793 10.9283 4.31055 10 4.31055ZM17.044 23.8025C16.8452 23.8024 16.6545 23.7232 16.514 23.5825L12.105 19.1745C11.4609 18.5231 11.1008 17.6432 11.1034 16.7271C11.106 15.811 11.4711 14.9332 12.1189 14.2854C12.7666 13.6376 13.6445 13.2725 14.5606 13.2699C15.4767 13.2673 16.3566 13.6274 17.008 14.2715L17.044 14.3075L17.08 14.2715C17.7315 13.6274 18.6114 13.2673 19.5275 13.2699C20.4436 13.2725 21.3214 13.6376 21.9692 14.2854C22.617 14.9332 22.9821 15.811 22.9846 16.7271C22.9872 17.6432 22.6271 18.5231 21.983 19.1745L17.574 23.5825C17.4335 23.7232 17.2429 23.8024 17.044 23.8025Z" fill="black"/>
</svg>
