<svg width="181" height="181" viewBox="0 0 181 181" fill="none" xmlns="http://www.w3.org/2000/svg">
<path d="M104.958 159.895L144.467 137.089C145.332 136.589 145.332 135.779 144.467 135.279L69.667 92.0888C69.1812 91.8423 68.6442 91.7139 68.0995 91.7139C67.5548 91.7139 67.0178 91.8423 66.5321 92.0888L27.0234 114.895C26.1582 115.394 26.1582 116.205 27.0234 116.705L101.823 159.895C102.309 160.141 102.846 160.27 103.391 160.27C103.936 160.27 104.473 160.141 104.958 159.895Z" fill="#E0E0E0"/>
<path d="M142.071 129.331C142.635 129.766 142.574 130.385 141.893 130.779L104.618 152.307C104.198 152.52 103.733 152.631 103.262 152.631C102.791 152.631 102.327 152.52 101.907 152.307L30.6217 111.159C29.9302 110.761 29.8759 110.134 30.4624 109.711C30.1117 109.976 29.8229 110.314 29.616 110.701C29.409 111.089 29.289 111.517 29.2642 111.955V113.747C29.29 114.218 29.4264 114.677 29.6622 115.086C29.898 115.494 30.2267 115.842 30.6217 116.1L101.881 157.234C102.302 157.449 102.767 157.56 103.239 157.56C103.711 157.56 104.176 157.449 104.596 157.234L141.882 135.71C142.277 135.453 142.606 135.106 142.842 134.697C143.078 134.289 143.214 133.831 143.24 133.36V131.55C143.214 131.119 143.097 130.697 142.895 130.315C142.693 129.932 142.412 129.597 142.071 129.331Z" fill="#455A64"/>
<path d="M141.904 129.212L70.6229 88.0635C70.2025 87.851 69.7382 87.7402 69.2672 87.7402C68.7962 87.7402 68.3318 87.851 67.9115 88.0635L30.6255 109.595C29.8761 110.026 29.8761 110.728 30.6255 111.159L101.889 152.308C102.309 152.52 102.774 152.631 103.244 152.631C103.715 152.631 104.18 152.52 104.6 152.308L141.886 130.776C142.628 130.345 142.628 129.643 141.904 129.212ZM132.235 125.885C132.876 126.247 132.876 126.855 132.235 127.225L98.3303 146.805C97.9694 146.987 97.5708 147.082 97.1665 147.082C96.7623 147.082 96.3636 146.987 96.0027 146.805L40.5008 114.754C39.8601 114.392 39.8601 113.78 40.5008 113.411L74.4094 93.8337C75.0501 93.4717 75.7198 93.2473 76.3606 93.6165L132.235 125.885Z" fill="#37474F"/>
<path d="M30.4624 109.686C30.1117 109.95 29.8229 110.288 29.616 110.676C29.409 111.063 29.289 111.491 29.2642 111.93V113.722C29.2903 114.193 29.4268 114.651 29.6626 115.06C29.8984 115.469 30.2269 115.816 30.6217 116.075L101.881 157.234C102.301 157.455 102.769 157.567 103.242 157.56V152.63C102.77 152.639 102.303 152.528 101.885 152.307L30.6217 111.159C29.9302 110.772 29.8759 110.134 30.4624 109.686Z" fill="#263238"/>
<path d="M52.8519 100.944C53.3551 100.654 53.3551 100.184 52.8519 99.8941C52.5713 99.7525 52.2613 99.6787 51.9469 99.6787C51.6326 99.6787 51.3226 99.7525 51.0419 99.8941C50.5388 100.184 50.5388 100.654 51.0419 100.944C51.3226 101.085 51.6326 101.159 51.9469 101.159C52.2613 101.159 52.5713 101.085 52.8519 100.944Z" fill="black"/>
<path d="M121.864 140.318C123.047 139.638 123.047 138.53 121.864 137.849C121.201 137.511 120.467 137.334 119.722 137.334C118.978 137.334 118.244 137.511 117.581 137.849C116.397 138.53 116.397 139.638 117.581 140.318C118.244 140.657 118.978 140.834 119.722 140.834C120.467 140.834 121.201 140.657 121.864 140.318Z" stroke="#E6E6E6" stroke-miterlimit="10"/>
<path d="M51.9435 104.425L58.9663 100.375C59.3826 100.132 59.4043 99.752 59.0133 99.5239C58.7853 99.4153 58.5352 99.3611 58.2827 99.3655C58.0302 99.3699 57.7822 99.4328 57.5581 99.5493L50.5353 103.6C50.119 103.843 50.0973 104.223 50.4882 104.451C50.7162 104.559 50.9663 104.614 51.2188 104.609C51.4713 104.605 51.7194 104.542 51.9435 104.425Z" fill="black"/>
<path d="M76.3603 93.6312C75.7196 93.2692 75.0499 93.4755 74.4091 93.8484L40.5006 113.425C39.8598 113.787 39.8598 114.395 40.5006 114.768L95.9879 146.802C96.3489 146.984 96.7475 147.079 97.1518 147.079C97.556 147.079 97.9546 146.984 98.3156 146.802L132.221 127.221C132.865 126.859 132.865 126.251 132.221 125.882L76.3603 93.6312Z" fill="#ED1C24"/>
<path opacity="0.85" d="M76.3603 93.6312C75.7196 93.2692 75.0499 93.4755 74.4091 93.8484L40.5006 113.425C39.8598 113.787 39.8598 114.395 40.5006 114.768L95.9879 146.802C96.3489 146.984 96.7475 147.079 97.1518 147.079C97.556 147.079 97.9546 146.984 98.3156 146.802L132.221 127.221C132.865 126.859 132.865 126.251 132.221 125.882L76.3603 93.6312Z" fill="white"/>
<path d="M44.4064 115.185L44.0444 114.975C44.0278 114.969 44.0135 114.957 44.0033 114.943C43.9932 114.928 43.9878 114.911 43.9878 114.893C43.9878 114.876 43.9932 114.858 44.0033 114.844C44.0135 114.829 44.0278 114.818 44.0444 114.812L44.0843 114.79C44.1277 114.767 44.1762 114.755 44.2254 114.755C44.2747 114.755 44.3232 114.767 44.3666 114.79L44.7286 114.996C44.8046 115.044 44.8046 115.116 44.7286 115.159L44.6888 115.185C44.6448 115.206 44.5965 115.217 44.5476 115.217C44.4987 115.217 44.4504 115.206 44.4064 115.185Z" fill="#455A64"/>
<path d="M45.0509 114.812L44.4247 114.45C44.3487 114.406 44.3487 114.334 44.4247 114.287L44.4645 114.265C44.5085 114.244 44.5568 114.232 44.6057 114.232C44.6546 114.232 44.7029 114.244 44.7469 114.265L45.3731 114.627C45.4491 114.67 45.4491 114.743 45.3731 114.79L45.3333 114.812C45.2893 114.833 45.2411 114.844 45.1921 114.844C45.1432 114.844 45.0949 114.833 45.0509 114.812Z" fill="#455A64"/>
<path d="M45.6952 114.439L44.8083 113.929C44.7286 113.882 44.7286 113.809 44.8083 113.766L44.8481 113.741C44.8921 113.719 44.9403 113.708 44.9893 113.708C45.0382 113.708 45.0865 113.719 45.1304 113.741L46.0173 114.255C46.034 114.261 46.0483 114.272 46.0584 114.286C46.0686 114.301 46.074 114.318 46.074 114.336C46.074 114.354 46.0686 114.371 46.0584 114.386C46.0483 114.4 46.034 114.411 46.0173 114.418L45.9775 114.439C45.9341 114.462 45.8856 114.474 45.8363 114.474C45.7871 114.474 45.7386 114.462 45.6952 114.439Z" fill="#455A64"/>
<path d="M46.3361 114.069L44.8048 113.182C44.7252 113.139 44.7252 113.066 44.8048 113.019L44.8447 112.998C44.8884 112.975 44.9368 112.964 44.9858 112.964C45.0349 112.964 45.0833 112.975 45.127 112.998L46.6547 113.881C46.7343 113.928 46.7343 114 46.6547 114.044L46.6185 114.069C46.5745 114.091 46.5262 114.102 46.4773 114.102C46.4284 114.102 46.3801 114.091 46.3361 114.069Z" fill="#455A64"/>
<path d="M48.1859 113.122C48.1615 113.124 48.1369 113.118 48.1171 113.103L47.8927 112.973L47.1687 113.389C47.1532 113.4 47.1349 113.405 47.1162 113.405C47.0975 113.405 47.0792 113.4 47.0637 113.389L46.9804 113.342L46.9442 113.317V113.281L46.908 112.372C46.9057 112.359 46.9057 112.346 46.908 112.332C46.92 112.318 46.9348 112.307 46.9515 112.3L47.0492 112.242C47.0748 112.227 47.1031 112.217 47.1325 112.213C47.1593 112.213 47.1855 112.221 47.2085 112.235L47.994 112.687L48.1533 112.597C48.1771 112.581 48.2045 112.571 48.233 112.568C48.2587 112.568 48.2839 112.575 48.3054 112.589L48.3596 112.622C48.385 112.622 48.3958 112.647 48.3922 112.662C48.3886 112.676 48.3922 112.687 48.3452 112.705L48.1859 112.799L48.4103 112.93C48.4357 112.93 48.4465 112.955 48.4429 112.969C48.4393 112.984 48.4248 112.998 48.3922 113.017L48.2691 113.085C48.2457 113.106 48.2167 113.118 48.1859 113.122ZM47.7479 112.836L47.1868 112.513L47.223 113.14L47.7479 112.836Z" fill="#455A64"/>
<path d="M48.9063 112.549C48.6529 112.561 48.4014 112.5 48.1823 112.372C47.9579 112.242 47.8565 112.1 47.8746 111.948C47.8927 111.796 48.0339 111.648 48.2909 111.499C48.3923 111.439 48.4989 111.388 48.6095 111.347C48.7066 111.31 48.8073 111.282 48.9099 111.264C48.9251 111.258 48.9419 111.258 48.957 111.264C48.9585 111.27 48.9585 111.276 48.957 111.282L48.9896 111.376C48.9931 111.38 48.9951 111.386 48.9951 111.391C48.9951 111.396 48.9931 111.401 48.9896 111.405H48.9498C48.7938 111.436 48.6444 111.494 48.5081 111.575C48.3344 111.673 48.2402 111.778 48.2258 111.883C48.2113 111.988 48.2909 112.093 48.4647 112.191C48.6235 112.288 48.8071 112.337 48.9932 112.332C49.1773 112.325 49.3567 112.272 49.5145 112.176C49.571 112.144 49.6254 112.107 49.6774 112.068C49.7186 112.038 49.7553 112.003 49.786 111.963L49.424 111.753L49.1235 111.927C49.0979 111.942 49.0696 111.951 49.0403 111.956C49.0147 111.955 48.9897 111.947 48.9679 111.934L48.9172 111.905C48.893 111.89 48.8822 111.876 48.8846 111.861C48.8846 111.861 48.9027 111.836 48.9317 111.818L49.4131 111.539C49.4416 111.522 49.474 111.512 49.5072 111.51C49.5368 111.511 49.5657 111.519 49.5905 111.536L50.1118 111.836C50.1264 111.842 50.139 111.852 50.148 111.865C50.148 111.865 50.148 111.883 50.148 111.898C50.0342 112.068 49.8767 112.204 49.6919 112.292C49.4552 112.441 49.1853 112.53 48.9063 112.549Z" fill="#455A64"/>
<path d="M58.9263 105.516L59.777 106.008C59.813 106.026 59.8527 106.035 59.8929 106.035C59.933 106.035 59.9727 106.026 60.0087 106.008L60.8666 105.516C60.9282 105.476 60.9282 105.418 60.8666 105.382L60.0123 104.889C59.9769 104.87 59.937 104.859 59.8965 104.859C59.8559 104.859 59.8161 104.87 59.7806 104.889L58.9263 105.382C58.8612 105.418 58.8612 105.476 58.9263 105.516Z" fill="#455A64"/>
<path d="M59.5164 104.846C59.4037 104.791 59.2796 104.763 59.1544 104.766C59.029 104.763 58.9048 104.79 58.7924 104.846C58.6259 104.943 58.6259 105.092 58.7924 105.186L59.0856 105.356L59.2992 105.313L59.0059 105.146C58.9799 105.136 58.9575 105.118 58.9417 105.095C58.9259 105.073 58.9175 105.045 58.9175 105.017C58.9175 104.99 58.9259 104.962 58.9417 104.939C58.9575 104.917 58.9799 104.899 59.0059 104.889C59.0527 104.864 59.1048 104.85 59.158 104.849C59.2103 104.848 59.2619 104.861 59.3064 104.889L59.5996 105.059L59.8168 105.016L59.5164 104.846Z" fill="#455A64"/>
<path d="M75.0501 95.8647C74.9067 95.8599 74.7645 95.8923 74.6374 95.9589L72.4654 97.2078C72.2772 97.3127 72.2772 97.4829 72.4654 97.5915L73.2546 98.044C73.3817 98.1105 73.5239 98.143 73.6672 98.1381C73.734 98.1376 73.8006 98.1316 73.8663 98.12C73.9405 98.108 74.0117 98.0822 74.0763 98.044L76.2483 96.7987C76.4329 96.6901 76.4329 96.52 76.2483 96.415L75.4591 95.9589C75.3334 95.8923 75.1923 95.8598 75.0501 95.8647ZM73.6745 98.0367C73.6124 98.0358 73.5515 98.0196 73.4971 97.9897L72.7116 97.5336C72.6813 97.5228 72.6551 97.5029 72.6366 97.4766C72.6181 97.4504 72.6082 97.4191 72.6082 97.3869C72.6082 97.3548 72.6181 97.3235 72.6366 97.2973C72.6551 97.271 72.6813 97.2511 72.7116 97.2403L74.8836 95.9951C74.918 95.9738 74.956 95.9591 74.9958 95.9516H75.0609C75.1222 95.9535 75.182 95.971 75.2347 96.0023L76.0202 96.4548C76.0505 96.4656 76.0767 96.4855 76.0952 96.5117C76.1137 96.538 76.1236 96.5693 76.1236 96.6014C76.1236 96.6335 76.1137 96.6648 76.0952 96.6911C76.0767 96.7173 76.0505 96.7372 76.0202 96.748L73.8482 97.9969C73.7955 98.0283 73.7358 98.0457 73.6745 98.0476V98.0367Z" fill="#455A64"/>
<path d="M73.7357 97.895L73.7068 97.8769L72.9828 97.4679C72.9606 97.4596 72.9415 97.4448 72.928 97.4254C72.9145 97.406 72.9072 97.3829 72.9072 97.3593C72.9072 97.3356 72.9145 97.3125 72.928 97.2931C72.9415 97.2737 72.9606 97.2589 72.9828 97.2506L74.9303 96.1284C74.9424 96.1201 74.9559 96.114 74.9701 96.1104L74.9991 96.1284L75.7231 96.5375C75.7441 96.5463 75.7621 96.5612 75.7747 96.5802C75.7873 96.5992 75.7941 96.6215 75.7941 96.6443C75.7941 96.6671 75.7873 96.6894 75.7747 96.7084C75.7621 96.7274 75.7441 96.7422 75.7231 96.7511L73.7755 97.8769L73.7357 97.895Z" fill="#455A64"/>
<path d="M75.571 95.9004C75.6458 95.8827 75.7234 95.881 75.7989 95.8954C75.8744 95.9097 75.946 95.9398 76.0091 95.9837L76.1539 96.0706C76.3168 96.1611 76.3855 96.2769 76.3095 96.3276L76.1683 96.4145L75.4443 95.9837L75.571 95.9004Z" fill="#455A64"/>
<path d="M63.2018 117.172C63.734 117.15 64.2541 117.006 64.7222 116.752C65.6055 116.242 65.8335 115.547 64.4326 114.674C64.3855 114.938 64.2779 115.187 64.1184 115.401C63.9588 115.616 63.7517 115.791 63.5131 115.912C62.3113 116.607 60.9429 116.785 59.8388 116.151C58.7347 115.518 59.1148 114.577 60.3239 113.882C61.1019 113.438 61.9827 113.206 62.8784 113.209C63.7741 113.212 64.6533 113.45 65.4281 113.9C67.4734 115.08 67.0136 116.329 65.5656 117.158C64.8078 117.582 63.9638 117.83 63.0968 117.882L63.2018 117.172ZM63.7122 114.298C62.6515 113.838 61.7502 113.903 61.066 114.298C60.4904 114.627 60.3746 115.109 61.0117 115.474C61.3308 115.647 61.691 115.729 62.0534 115.712C62.4158 115.695 62.7665 115.579 63.0678 115.377C63.2709 115.282 63.4409 115.129 63.5558 114.936C63.6707 114.744 63.7252 114.522 63.7122 114.298Z" fill="#455A64"/>
<path d="M66.2459 112.021C66.4618 111.89 66.7058 111.813 66.9576 111.795C67.2095 111.777 67.4619 111.82 67.6939 111.92C68.0559 112.137 67.9871 112.499 67.5238 112.763C67.3045 112.897 67.0562 112.977 66.7999 112.995C66.5435 113.013 66.2865 112.97 66.0504 112.868C65.6776 112.655 65.7717 112.289 66.2459 112.021ZM69.0731 113.654C69.2892 113.523 69.5334 113.446 69.7853 113.429C70.0372 113.412 70.2895 113.455 70.5211 113.556C70.8831 113.769 70.8143 114.131 70.351 114.399C70.1314 114.533 69.8832 114.611 69.627 114.63C69.3708 114.648 69.1139 114.605 68.8777 114.504C68.5084 114.291 68.5989 113.921 69.0623 113.668L69.0731 113.654Z" fill="#455A64"/>
<path d="M69.5512 111.681C67.7737 110.652 67.7737 109.585 69.229 108.741C70.6842 107.898 72.5449 107.905 74.3187 108.929C76.0925 109.954 76.1287 111.054 74.6807 111.898C73.2327 112.741 71.3322 112.709 69.5512 111.681ZM73.1024 109.628C71.6146 108.77 70.6589 108.777 69.9747 109.172C69.2905 109.566 69.276 110.12 70.7639 110.982C72.2517 111.843 73.2725 111.858 73.9458 111.471C74.6192 111.083 74.5938 110.49 73.1024 109.628Z" fill="#455A64"/>
<path d="M75.2126 108.411C73.4316 107.383 73.4316 106.315 74.8868 105.475C76.342 104.636 78.2063 104.639 79.9765 105.66C81.7467 106.681 81.8082 107.789 80.3385 108.628C78.8688 109.468 76.99 109.439 75.2126 108.411ZM78.7638 106.362C77.2724 105.501 76.3167 105.508 75.6325 105.903C74.9483 106.297 74.9339 106.851 76.4253 107.713C77.9167 108.574 78.934 108.585 79.6037 108.198C80.2734 107.81 80.2516 107.22 78.7638 106.362Z" fill="#455A64"/>
<path d="M66.0869 125.118L94.5691 108.676C94.9058 108.506 95.2778 108.417 95.6551 108.417C96.0324 108.417 96.4044 108.506 96.7411 108.676L104.021 112.879C104.622 113.241 104.622 113.787 104.021 114.135L75.5496 130.577C75.2129 130.747 74.8409 130.836 74.4636 130.836C74.0863 130.836 73.7143 130.747 73.3776 130.577L66.0869 126.374C65.486 126.027 65.486 125.465 66.0869 125.118Z" fill="#ED1C24"/>
<path d="M69.1422 125.675L74.2392 128.614C74.3841 128.689 74.5449 128.728 74.708 128.728C74.8711 128.728 75.0319 128.689 75.1768 128.614L82.6883 124.27C82.9489 124.118 82.9489 123.876 82.6883 123.727L77.5913 120.784C77.4459 120.711 77.2853 120.673 77.1225 120.673C76.9597 120.673 76.7992 120.711 76.6537 120.784L69.1422 125.128C69.0838 125.146 69.0327 125.182 68.9963 125.232C68.96 125.281 68.9404 125.34 68.9404 125.402C68.9404 125.463 68.96 125.522 68.9963 125.571C69.0327 125.621 69.0838 125.657 69.1422 125.675Z" fill="#FAFAFA"/>
<path d="M76.8309 124.26L82.8726 124.021L76.8526 123.931L77.0951 120.684L76.1069 124.691L68.9429 125.4L74.7928 125.125L74.648 128.727L75.0969 125.111L76.7729 125.031L76.8309 124.26Z" fill="#ED1C24"/>
<path d="M80.002 119.25L87.3614 115.018C87.5449 114.925 87.7477 114.877 87.9533 114.877C88.159 114.877 88.3617 114.925 88.5452 115.018C88.8674 115.203 88.8565 115.507 88.5198 115.702L81.1604 119.934C80.9769 120.027 80.7742 120.075 80.5685 120.075C80.3629 120.075 80.1601 120.027 79.9766 119.934C79.6581 119.75 79.6726 119.46 80.002 119.25Z" fill="#FAFAFA"/>
<path d="M82.2716 120.546L97.186 111.926C97.3695 111.834 97.5723 111.785 97.7779 111.785C97.9836 111.785 98.1863 111.834 98.3698 111.926C98.692 112.111 98.6811 112.419 98.3444 112.611L83.43 121.23C83.2459 121.322 83.0425 121.371 82.8364 121.371C82.6302 121.371 82.4269 121.322 82.2427 121.23C81.9241 121.056 81.935 120.752 82.2716 120.546Z" fill="#FAFAFA"/>
<path d="M84.5345 121.863L99.4525 113.244C99.636 113.151 99.8387 113.103 100.044 113.103C100.25 113.103 100.453 113.151 100.636 113.244C100.955 113.428 100.944 113.736 100.611 113.928L85.6929 122.547C85.5094 122.64 85.3067 122.688 85.101 122.688C84.8954 122.688 84.6926 122.64 84.5091 122.547C84.187 122.355 84.2014 122.059 84.5345 121.863Z" fill="#FAFAFA"/>
<path d="M62.8252 65.7177L111.109 37.8438L113.042 38.9587C113.305 39.1321 113.524 39.3649 113.682 39.6384C113.839 39.9119 113.93 40.2184 113.947 40.5334V76.1506C113.93 76.4656 113.839 76.7723 113.682 77.0458C113.525 77.3194 113.306 77.5521 113.042 77.7253L66.5719 104.549C66.2907 104.689 65.981 104.762 65.6669 104.762C65.3528 104.762 65.043 104.689 64.7619 104.549L63.7411 103.959C63.4773 103.786 63.2577 103.553 63.0999 103.28C62.9422 103.006 62.8506 102.7 62.8324 102.385L62.8252 65.7177Z" fill="#ED1C24"/>
<path opacity="0.05" d="M62.8252 65.7177L111.109 37.8438L113.042 38.9587C113.305 39.1321 113.524 39.3649 113.682 39.6384C113.839 39.9119 113.93 40.2184 113.947 40.5334V76.1506C113.93 76.4656 113.839 76.7723 113.682 77.0458C113.525 77.3194 113.306 77.5521 113.042 77.7253L66.5719 104.549C66.2907 104.689 65.981 104.762 65.6669 104.762C65.3528 104.762 65.043 104.689 64.7619 104.549L63.7411 103.959C63.4773 103.786 63.2577 103.553 63.0999 103.28C62.9422 103.006 62.8506 102.7 62.8324 102.385L62.8252 65.7177Z" fill="black"/>
<path d="M110.841 34.7088L111.04 34.6002L110.291 34.1658C110.226 34.1293 110.158 34.0978 110.088 34.0717L88.8385 26.1982C88.5472 26.1005 88.2323 26.098 87.9395 26.191C87.6466 26.2841 87.391 26.4679 87.2095 26.7159L63.437 61.4281C63.0679 62.0266 62.8574 62.7093 62.8252 63.4118V65.7178L63.5492 66.1449L111.098 37.8401V35.5342C111.091 35.2405 111.002 34.9545 110.841 34.7088Z" fill="#ED1C24"/>
<path opacity="0.1" d="M88.1902 26.8861C88.0956 26.9602 88.0126 27.0481 87.944 27.1468L64.1715 61.859C63.9762 62.166 63.8274 62.5003 63.7299 62.8508L63.0059 62.4237C63.0594 62.2451 63.1235 62.0698 63.1977 61.8988C63.2303 61.8264 63.2629 61.7576 63.2991 61.6888V61.6562C63.3367 61.5836 63.3791 61.5135 63.4258 61.4463L87.2056 26.7196C87.2414 26.6682 87.2813 26.6198 87.325 26.5748L87.4517 26.459L88.1902 26.8861Z" fill="black"/>
<path opacity="0.35" d="M111.029 34.5998C110.965 34.5607 110.897 34.528 110.826 34.502L89.5732 26.6249C89.3395 26.5472 89.0899 26.5303 88.8479 26.576C88.606 26.6216 88.3796 26.7281 88.1903 26.8855L87.4663 26.4584C87.6572 26.3024 87.8841 26.1969 88.1263 26.1513C88.3685 26.1058 88.6183 26.1218 88.8528 26.1978L110.102 34.0713C110.172 34.0972 110.238 34.1299 110.301 34.169L111.029 34.5998Z" fill="white"/>
<path d="M87.3291 26.5748C87.3678 26.5325 87.4102 26.4937 87.4558 26.459C87.4094 26.4928 87.3669 26.5317 87.3291 26.5748Z" fill="#ED1C24"/>
<path opacity="0.2" d="M63.292 61.6743C63.292 61.6743 63.292 61.6487 63.292 61.6378C63.292 61.6268 63.2993 61.6633 63.292 61.6743Z" fill="black"/>
<path opacity="0.2" d="M87.2095 26.7154C87.2442 26.6643 87.2843 26.617 87.3289 26.5742C87.2832 26.616 87.2431 26.6634 87.2095 26.7154Z" fill="black"/>
<path d="M87.9444 27.1502L64.1755 61.866C63.8032 62.462 63.5912 63.1441 63.5601 63.8461V66.1521L111.844 38.2781V35.9613C111.826 35.6492 111.721 35.3483 111.541 35.0925C111.361 34.8367 111.114 34.6361 110.826 34.5133L89.577 26.6398C89.2857 26.5433 88.9714 26.5407 88.6785 26.6322C88.3856 26.7238 88.1289 26.905 87.9444 27.1502Z" fill="#ED1C24"/>
<path d="M68.8162 99.6988L67.2669 98.8047C67.139 98.7071 67.0385 98.5782 66.9751 98.4305C66.9117 98.2827 66.8875 98.1211 66.9049 97.9612V49.6849C66.9252 49.1948 67.075 48.7189 67.3393 48.3057L68.914 49.2107C68.6476 49.6255 68.4975 50.1044 68.4796 50.5971V98.8553C68.4603 99.0129 68.4811 99.1728 68.5399 99.3202C68.5988 99.4676 68.6938 99.5978 68.8162 99.6988Z" fill="#E0E0E0"/>
<path d="M69.7826 48.2903L108.567 25.9042C109.291 25.4771 109.896 25.821 109.896 26.6717V74.9335C109.872 75.3954 109.739 75.8449 109.508 76.2457C109.277 76.6464 108.955 76.9869 108.567 77.2395L69.7826 99.6219C69.0586 100.045 68.4541 99.7016 68.4541 98.8509V50.5963C68.4791 50.1346 68.6124 49.6854 68.8432 49.2848C69.074 48.8842 69.3958 48.5435 69.7826 48.2903Z" fill="#F0F0F0"/>
<path d="M107.934 24.9024L109.454 25.7856C109.307 25.7308 109.148 25.7136 108.993 25.7357C108.837 25.7579 108.69 25.8186 108.564 25.9123L69.7825 48.2948C69.4105 48.5191 69.1016 48.8342 68.8848 49.2107L67.3101 48.3057C67.5286 47.9298 67.8355 47.6129 68.2042 47.3826L106.989 24.9784C107.124 24.8792 107.283 24.819 107.45 24.8043C107.616 24.7896 107.784 24.821 107.934 24.8951V24.9024Z" fill="#FAFAFA"/>
<path d="M72.809 50.8174L105.06 32.1962C105.494 31.9464 105.845 32.1238 105.845 32.5944C105.825 32.8574 105.744 33.1122 105.608 33.338C105.471 33.5638 105.283 33.7542 105.06 33.8939L72.809 52.5152C72.3746 52.765 72.0234 52.5876 72.0234 52.1206C72.0426 51.8569 72.1237 51.6014 72.2602 51.375C72.3967 51.1485 72.5847 50.9575 72.809 50.8174Z" fill="#E0E0E0"/>
<path d="M72.809 54.2022L105.06 35.5809C105.494 35.3311 105.845 35.5085 105.845 35.9791C105.825 36.2422 105.744 36.497 105.608 36.7227C105.471 36.9485 105.283 37.139 105.06 37.2787L72.809 55.9C72.3746 56.1498 72.0234 55.9724 72.0234 55.5054C72.0426 55.2417 72.1237 54.9862 72.2602 54.7597C72.3967 54.5333 72.5847 54.3423 72.809 54.2022Z" fill="#E0E0E0"/>
<path d="M72.809 57.5871L105.06 38.9658C105.494 38.716 105.845 38.8934 105.845 39.3604C105.826 39.6241 105.745 39.8796 105.608 40.106C105.472 40.3325 105.284 40.5235 105.06 40.6636L72.809 59.2849C72.3746 59.5346 72.0234 59.3572 72.0234 58.8903C72.0426 58.6265 72.1237 58.3711 72.2602 58.1446C72.3967 57.9182 72.5847 57.7271 72.809 57.5871Z" fill="#E0E0E0"/>
<path d="M72.809 60.9721L105.06 42.3545C105.494 42.1047 105.845 42.2821 105.845 42.749C105.826 43.0128 105.745 43.2682 105.608 43.4947C105.472 43.7211 105.284 43.9122 105.06 44.0522L72.809 62.6735C72.3746 62.9233 72.0234 62.7459 72.0234 62.2753C72.0426 62.0116 72.1237 61.7561 72.2602 61.5297C72.3967 61.3032 72.5847 61.1122 72.809 60.9721Z" fill="#E0E0E0"/>
<path d="M72.809 64.3566L105.06 45.7353C105.494 45.4855 105.845 45.6629 105.845 46.1299C105.826 46.3936 105.745 46.6491 105.608 46.8756C105.472 47.102 105.284 47.293 105.06 47.4331L72.809 66.0544C72.3746 66.3042 72.0234 66.1268 72.0234 65.6562C72.0431 65.3931 72.1245 65.1383 72.261 64.9126C72.3974 64.6868 72.5852 64.4963 72.809 64.3566Z" fill="#E0E0E0"/>
<path d="M72.809 67.7414L105.06 49.1201C105.494 48.8703 105.845 49.0477 105.845 49.5147C105.826 49.7784 105.745 50.0339 105.608 50.2603C105.472 50.4868 105.284 50.6778 105.06 50.8179L72.809 69.4392C72.3746 69.6889 72.0234 69.5115 72.0234 69.0409C72.0431 68.7779 72.1245 68.5231 72.261 68.2973C72.3974 68.0715 72.5852 67.8811 72.809 67.7414Z" fill="#E0E0E0"/>
<path d="M72.809 71.126L105.06 52.4902C105.494 52.2404 105.845 52.4178 105.845 52.8848C105.826 53.1485 105.745 53.404 105.608 53.6304C105.472 53.8569 105.284 54.0479 105.06 54.188L72.809 72.8093C72.3746 73.059 72.0234 72.8817 72.0234 72.4111C72.0453 72.1505 72.1277 71.8986 72.2641 71.6755C72.4005 71.4524 72.587 71.2642 72.809 71.126Z" fill="#E0E0E0"/>
<path d="M72.809 74.5105L105.06 55.8893C105.494 55.6359 105.845 55.8169 105.845 56.2838C105.826 56.5476 105.745 56.803 105.608 57.0295C105.472 57.256 105.284 57.447 105.06 57.587L72.809 76.2083C72.3746 76.4581 72.0234 76.2807 72.0234 75.8101C72.0431 75.547 72.1245 75.2923 72.261 75.0665C72.3974 74.8407 72.5852 74.6503 72.809 74.5105Z" fill="#E0E0E0"/>
<path d="M112.723 76.6208C112.709 76.6466 112.692 76.6708 112.672 76.6932L92.5525 67.7699C91.7886 67.4319 90.9283 67.3813 90.1301 67.6275C89.3318 67.8736 88.6494 68.3998 88.2085 69.1093L66.6984 103.622L65.902 104.082C65.8133 104.144 65.7106 104.183 65.6031 104.195C65.4956 104.207 65.3868 104.192 65.2866 104.151L87.4084 68.6532C87.8504 67.9448 88.5326 67.4192 89.3303 67.1726C90.128 66.926 90.9878 66.9748 91.7524 67.3101L112.723 76.6208Z" fill="#ED1C24"/>
<path opacity="0.4" d="M86.221 72.2475L86.2717 72.2041L66.6911 103.626L65.8947 104.085C65.8056 104.146 65.7029 104.185 65.5956 104.197C65.4883 104.209 65.3797 104.194 65.2793 104.154L85.4318 71.7842L86.221 72.2475Z" fill="white"/>
<path opacity="0.4" d="M112.723 76.6241C112.709 76.6499 112.692 76.6741 112.673 76.6965L92.5491 67.7696C91.7852 67.4316 90.9249 67.381 90.1267 67.6272C89.3285 67.8733 88.646 68.3995 88.2051 69.109L87.4087 68.6456C87.8523 67.9392 88.5353 67.4159 89.3328 67.1713C90.1304 66.9267 90.9893 66.9772 91.7527 67.3135L112.723 76.6241Z" fill="white"/>
<path d="M113.932 40.301C113.889 40.0404 113.751 39.968 113.57 40.0911C113.481 40.1578 113.402 40.2385 113.338 40.33L113.237 40.4712L93.3959 68.1135L90.4311 72.2439C90.2402 72.4846 89.9874 72.6687 89.6998 72.7765C89.4121 72.8843 89.1005 72.9117 88.7985 72.8557L86.2392 72.2475L66.6911 67.5995C66.5598 67.5726 66.4243 67.5726 66.293 67.5995C66.2419 67.6098 66.1922 67.6255 66.1445 67.6465L66.6839 67.3352L85.5079 71.8131L88.0745 72.3996C88.3765 72.4564 88.6884 72.4294 88.9762 72.3215C89.264 72.2137 89.5168 72.0291 89.7071 71.7878L92.6719 67.661L112.625 39.8775C112.686 39.7949 112.762 39.7248 112.85 39.6712L111.134 38.6829L111.858 38.2666L113.052 38.9544C113.282 39.1088 113.477 39.3075 113.628 39.5388C113.779 39.7701 113.883 40.0293 113.932 40.301Z" fill="#ED1C24"/>
<path opacity="0.4" d="M93.396 68.1137L90.4312 72.2442C90.2403 72.4848 89.9875 72.669 89.6999 72.7767C89.4122 72.8845 89.1006 72.9119 88.7986 72.8559L86.2393 72.2478L86.2899 72.2043L86.413 72.0089L88.0891 72.4071C88.3911 72.4638 88.703 72.4369 88.9908 72.329C89.2786 72.2212 89.5314 72.0366 89.7217 71.7953L92.6575 67.7119L93.396 68.1137Z" fill="white"/>
<path opacity="0.1" d="M113.038 38.9544L111.844 38.2666L111.12 38.6829L112.846 39.6784C112.759 39.7324 112.683 39.8024 112.622 39.8847L92.672 67.6682L92.6431 67.7081L93.3671 68.1099L113.234 40.4712L113.335 40.33C113.399 40.2385 113.477 40.1578 113.567 40.0911C113.744 39.968 113.882 40.0404 113.929 40.301C113.878 40.0284 113.773 39.7687 113.62 39.5374C113.467 39.306 113.269 39.1078 113.038 38.9544Z" fill="black"/>
<path d="M67.0823 68.1794L62.8252 65.7178V102.385C62.8433 102.7 62.9349 103.006 63.0927 103.28C63.2505 103.553 63.47 103.786 63.7338 103.959L64.7547 104.55C65.0358 104.689 65.3456 104.762 65.6597 104.762C65.9737 104.762 66.2835 104.689 66.5647 104.55L67.0751 104.253L67.0823 68.1794Z" fill="#ED1C24"/>
<path opacity="0.15" d="M67.0823 68.1794L62.8252 65.7178V102.385C62.8433 102.7 62.9349 103.006 63.0927 103.28C63.2505 103.553 63.47 103.786 63.7338 103.959L64.7547 104.55C65.0358 104.689 65.3456 104.762 65.6597 104.762C65.9737 104.762 66.2835 104.689 66.5647 104.55L67.0751 104.253L67.0823 68.1794Z" fill="black"/>
<path d="M113.237 40.4717V75.7015C113.228 76.0279 113.13 76.3456 112.955 76.621C112.822 76.8546 112.641 77.057 112.423 77.2147L112.39 77.2364L112.329 77.2762L65.8624 104.1C65.8066 104.135 65.7471 104.163 65.685 104.184C65.6812 104.129 65.6812 104.075 65.685 104.021V68.4181C65.6769 68.2905 65.7 68.1629 65.7522 68.0463C65.8043 67.9296 65.884 67.8273 65.9845 67.7483C66.0849 67.6692 66.203 67.6157 66.3287 67.5924C66.4543 67.5691 66.5838 67.5767 66.7058 67.6144L86.2538 72.2625L88.8132 72.8707C89.1152 72.9267 89.4268 72.8993 89.7144 72.7915C90.0021 72.6837 90.2549 72.4996 90.4458 72.2589L93.3961 68.114L113.237 40.4717Z" fill="#455A64"/>
<path d="M113.95 40.5437V76.1609C113.939 76.487 113.842 76.8042 113.668 77.0804C113.533 77.3136 113.352 77.5168 113.136 77.6777L113.1 77.6958C113.081 77.7103 113.062 77.7236 113.042 77.7356L66.5755 104.545C66.4867 104.608 66.3835 104.648 66.2753 104.661C66.1671 104.674 66.0575 104.659 65.9565 104.618C65.8794 104.573 65.8144 104.51 65.7671 104.434C65.7198 104.358 65.6916 104.272 65.685 104.183C65.6812 104.129 65.6812 104.075 65.685 104.02V68.4177C65.6769 68.2902 65.7 68.1626 65.7522 68.0459C65.8043 67.9293 65.884 67.827 65.9845 67.7479C66.0849 67.6689 66.203 67.6154 66.3287 67.5921C66.4543 67.5688 66.5838 67.5763 66.7058 67.6141L86.2538 72.2622L88.8132 72.8703C89.1152 72.9263 89.4268 72.8989 89.7144 72.7912C90.0021 72.6834 90.2549 72.4992 90.4458 72.2586L93.3961 68.1137L113.252 40.4714L113.353 40.3302C113.668 39.8632 113.95 39.9501 113.95 40.5437Z" fill="#ED1C24"/>
<path d="M113.042 77.7217L113.1 77.6819L113.136 77.6638C113.352 77.5029 113.533 77.2997 113.668 77.0665C113.837 76.7951 113.933 76.4846 113.947 76.1651L93.396 68.1143L107.152 81.1209L113.042 77.7217Z" fill="#ED1C24"/>
<path opacity="0.2" d="M113.042 77.7217L113.1 77.6819L113.136 77.6638C113.352 77.5029 113.533 77.2997 113.668 77.0665C113.837 76.7951 113.933 76.4846 113.947 76.1651L93.396 68.1143L107.152 81.1209L113.042 77.7217Z" fill="black"/>
<path d="M65.6667 104.025C65.6534 104.141 65.6728 104.258 65.7227 104.364C65.7726 104.469 65.851 104.559 65.949 104.622C66.05 104.663 66.1596 104.678 66.2678 104.665C66.376 104.652 66.4793 104.613 66.568 104.55L82.5648 95.315L86.2174 72.252L65.6667 103.431V104.025Z" fill="#ED1C24"/>
<path opacity="0.15" d="M88.1941 69.106L65.9456 104.618C65.8475 104.555 65.7692 104.465 65.7193 104.36C65.6694 104.254 65.65 104.137 65.6632 104.021V103.431L85.2945 72.0382L85.4465 71.7956L87.3977 68.668L88.1941 69.106Z" fill="black"/>
<path d="M113.668 77.0664C113.533 77.2996 113.352 77.5028 113.136 77.6637L113.1 77.6818L66.5756 104.546C66.4868 104.609 66.3835 104.649 66.2753 104.661C66.1671 104.674 66.0575 104.659 65.9565 104.618L88.2051 69.0952C88.6513 68.3826 89.3393 67.8546 90.143 67.608C90.9468 67.3613 91.8125 67.4125 92.5816 67.7522L113.668 77.0664Z" fill="#ED1C24"/>
<path d="M113.668 77.0702C113.535 77.3039 113.353 77.5063 113.136 77.6639L113.103 77.6856L66.5717 104.55C66.4823 104.612 66.3789 104.65 66.2708 104.662C66.1628 104.674 66.0534 104.659 65.9526 104.618L66.5717 103.634L112.296 77.2295L112.332 77.2078C112.525 77.0667 112.688 76.8897 112.814 76.6865L113.668 77.0702Z" fill="#ED1C24"/>
<path opacity="0.15" d="M62.988 62.4229L63.712 62.85C63.6094 63.1711 63.5521 63.505 63.5419 63.8419V66.1442L62.8179 65.717V63.4111C62.8285 63.0754 62.8857 62.7428 62.988 62.4229Z" fill="black"/>
<path d="M67.3611 67.4836L66.6805 67.3207L66.1411 67.6321L65.3954 67.2013L63.5601 66.1442L64.2732 65.7207L67.3611 67.4836Z" fill="#ED1C24"/>
<path opacity="0.1" d="M67.361 67.4839L64.2767 65.7246L63.5527 66.1481L65.3881 67.2052L66.1338 67.636C66.1771 67.6145 66.2235 67.5998 66.2714 67.5925C66.4027 67.5657 66.5382 67.5657 66.6696 67.5925L68.1719 67.9545L85.2945 72.0379L85.4465 71.7954L67.361 67.4839Z" fill="black"/>
<path d="M122.537 68.9026L119.102 66.9116L119.073 66.8935C117.574 66.0464 115.514 66.1695 113.237 67.4908C108.654 70.137 104.937 76.5734 104.937 81.8658C104.937 84.5084 105.867 86.3655 107.362 87.2343L110.493 89.0443L111.217 87.8171C112.054 87.6318 112.857 87.3192 113.599 86.8904C118.182 84.2442 121.9 77.8078 121.9 72.5154C121.899 71.8003 121.812 71.088 121.639 70.3941L122.537 68.9026Z" fill="#F28F8F"/>
<path opacity="0.15" d="M105.241 79.082C105.038 79.9975 104.933 80.9318 104.926 81.8694C104.926 84.512 105.856 86.3691 107.351 87.2379L110.482 89.0479L111.206 87.8207C112.043 87.6354 112.846 87.3228 113.588 86.894C114.4 86.4193 115.158 85.8599 115.851 85.2252L105.241 79.082Z" fill="black"/>
<path d="M116.495 69.3773C111.913 72.0235 108.195 78.4599 108.195 83.7523C108.195 89.0447 111.913 91.1914 116.495 88.5452C121.078 85.899 124.796 79.4626 124.796 74.1702C124.796 68.8777 121.082 66.7311 116.495 69.3773Z" fill="#FFA8A7"/>
<path d="M119.775 76.7435V74.7091C119.775 72.3886 118.363 71.3207 116.625 72.3271C114.884 73.3335 113.472 76.0267 113.472 78.3472V80.1572C113.434 81.4131 113.069 82.6373 112.412 83.7084C112.25 83.9923 112.162 84.3121 112.155 84.6387C112.155 85.2215 112.517 85.493 112.948 85.2396L120.307 80.9898C120.548 80.8163 120.746 80.5888 120.883 80.3255C121.021 80.0621 121.095 79.7701 121.1 79.473C121.111 79.3595 121.096 79.2449 121.056 79.1382C121.016 79.0315 120.951 78.9355 120.868 78.8576C120.202 78.5752 119.775 77.8295 119.775 76.7435Z" fill="white"/>
<path d="M118.135 82.8975C118.135 84.0124 117.458 85.3048 116.625 85.7935C115.793 86.2822 115.112 85.7645 115.112 84.6532L118.135 82.8975Z" fill="white"/>
</svg>
