<svg width="25" height="25" viewBox="0 0 25 25" fill="none" xmlns="http://www.w3.org/2000/svg">
<path d="M22.6575 9.50094L22.6773 9.55708L22.7505 9.79965L22.8118 10.0174L22.838 10.1168L22.8808 10.2968C23.4367 12.8051 23.031 15.4306 21.7438 17.6541C20.4595 19.8844 18.3836 21.5503 15.9281 22.3212L15.755 22.3727L15.5424 22.4275L15.2351 22.5004C15.1266 22.5251 15.0141 22.5272 14.9047 22.5065C14.7953 22.4858 14.6914 22.4427 14.5994 22.3801C14.5074 22.3174 14.4293 22.2365 14.3699 22.1423C14.3106 22.0481 14.2713 21.9427 14.2545 21.8327C14.2201 21.6068 14.2717 21.3762 14.3992 21.1866C14.5266 20.997 14.7207 20.8621 14.9428 20.8088L15.1901 20.7467C15.3444 20.7061 15.4771 20.6671 15.5883 20.6297C17.5602 19.9639 19.2212 18.6009 20.2593 16.7969C21.3034 14.9943 21.6527 12.8722 21.2415 10.8299L21.212 10.6958L21.1725 10.5394L21.1233 10.3602L21.0641 10.1588C20.9979 9.93906 21.0166 9.70247 21.1166 9.49591C21.2167 9.28936 21.3907 9.12794 21.6041 9.04365C21.7033 9.00446 21.8092 8.98521 21.9159 8.98698C22.0225 8.98876 22.1278 9.01153 22.2256 9.054C22.3234 9.09646 22.4119 9.15779 22.486 9.23448C22.5602 9.31117 22.6184 9.40171 22.6575 9.50094ZM3.9984 9.03722C4.01697 9.04294 4.03525 9.04922 4.05325 9.05608C4.26624 9.13909 4.44026 9.29908 4.54083 9.50435C4.6414 9.70963 4.66118 9.94519 4.59625 10.1644C4.51911 10.4241 4.4634 10.6402 4.42911 10.8128C4.01971 12.8534 4.36947 14.9733 5.41268 16.7742C6.45165 18.5798 8.11467 19.9435 10.0888 20.6087L10.22 20.6502L10.2945 20.6717L10.4617 20.7171L10.7591 20.7904C10.9826 20.8429 11.1781 20.9775 11.3069 21.1675C11.4358 21.3574 11.4885 21.5889 11.4547 21.8159C11.4229 22.0288 11.3079 22.2204 11.135 22.3485C10.962 22.4766 10.7453 22.5308 10.5324 22.4991L10.4733 22.4884L10.2264 22.4305L10.0078 22.3748L9.81668 22.3212L9.73097 22.2955C7.28051 21.5225 5.20947 19.8579 3.92768 17.6309C2.63815 15.4036 2.23322 12.7728 2.79325 10.2608L2.82625 10.1236L2.86911 9.96293L2.95225 9.67794L2.98482 9.57079C3.0163 9.46917 3.06749 9.37475 3.13547 9.29291C3.20344 9.21107 3.28688 9.14343 3.381 9.09384C3.47512 9.04425 3.57809 9.01369 3.68402 9.0039C3.78996 8.99412 3.89678 9.00572 3.9984 9.03722ZM12.8553 5.64294C16.6425 5.64294 19.7124 8.71279 19.7124 12.5001C19.7124 16.2874 16.6425 19.3572 12.8553 19.3572C9.06797 19.3572 5.99811 16.2874 5.99811 12.5001C5.99811 8.71279 9.0684 5.64294 12.8553 5.64294ZM12.8553 7.35722C10.0151 7.35722 7.7124 9.65993 7.7124 12.5001C7.7124 15.3402 10.0151 17.6429 12.8553 17.6429C15.6958 17.6429 17.9981 15.3402 17.9981 12.5001C17.9981 9.65993 15.6958 7.35722 12.8553 7.35722ZM12.8553 2.21436C15.429 2.21121 17.9099 3.17589 19.8054 4.91693L19.9078 5.01422L20.0257 5.13165L20.1585 5.26965L20.3068 5.42779C20.3825 5.50942 20.4405 5.60577 20.4772 5.71082C20.514 5.81587 20.5287 5.92736 20.5205 6.03835C20.5122 6.14934 20.4812 6.25744 20.4293 6.35591C20.3775 6.45437 20.3058 6.54109 20.219 6.61065C20.0406 6.75358 19.815 6.82427 19.5869 6.80871C19.3589 6.79315 19.145 6.69248 18.9877 6.52665C18.8945 6.42808 18.8081 6.33993 18.7284 6.26222L18.5784 6.11908L18.5098 6.05779C16.9473 4.68285 14.9366 3.92573 12.8553 3.92865C10.772 3.92563 8.7595 4.68406 7.1964 6.06122L7.14754 6.10493L7.03911 6.20779L6.91611 6.32994L6.70397 6.55065C6.37825 6.89736 5.84082 6.93636 5.4684 6.64065C5.38487 6.57434 5.31523 6.49223 5.26346 6.399C5.21168 6.30577 5.17879 6.20325 5.16665 6.09731C5.15451 5.99136 5.16337 5.88406 5.19271 5.78153C5.22206 5.67901 5.27132 5.58327 5.33768 5.49979L5.37625 5.45436L5.54982 5.26965L5.70754 5.10765C5.7824 5.03251 5.85154 4.96608 5.91497 4.90836C7.80918 3.17284 10.2858 2.21145 12.8548 2.21436" fill="#392E2E"/>
</svg>
